<mxfile host="app.diagrams.net" modified="2023-04-25T09:35:47.704Z" agent="Mozilla/5.0 (Windows NT 10.0; Win64; x64) AppleWebKit/537.36 (KHTML, like Gecko) Chrome/110.0.0.0 YaBrowser/23.3.2.806 Yowser/2.5 Safari/537.36" version="21.2.1" etag="j-nyl_2WfeXNqpKBN4GE" type="github">
  <diagram name="Page-1" id="XGMNG2iF4pQDpls2IKq8">
    <mxGraphModel>
      <root>
        <mxCell id="0" />
        <mxCell id="1" parent="0" />
      </root>
    </mxGraphModel>
  </diagram>
</mxfile>
